<svg width="120" height="108" viewBox="0 0 120 108" fill="none" xmlns="http://www.w3.org/2000/svg">
<path d="M88.8884 5.05011C88.6234 6.19007 89.0826 6.92496 90.2191 7.14153C90.6815 7.23285 91.2318 7.1979 91.4375 7.06934C91.8147 6.83365 92.0308 6.91247 93.1815 7.76189C93.6755 8.09477 93.684 8.18456 93.4279 9.03373C93.0922 10.0989 93.2468 11.2619 93.8662 12.2531L94.3254 12.988L92.5855 15.2396C91.6223 16.4831 90.3029 18.1868 89.6272 19.013C88.9793 19.8456 87.9174 21.1983 87.2867 22.0202L86.1197 23.5098L85.4497 23.4295C84.0646 23.2731 83.1098 24.6064 83.6581 25.9035C83.9141 26.504 83.8795 26.7157 83.4396 27.347C82.9354 28.0661 82.9011 28.0875 82.441 27.9235C81.7476 27.6914 81.0773 27.8013 80.2715 28.3048C79.6714 28.6798 79.5298 28.9109 79.3164 29.8284C79.0924 30.7289 79.1283 31.0153 79.4914 31.5964C79.737 31.9895 80.1325 32.4315 80.3848 32.6065C80.8191 32.8818 80.8317 33.0164 80.543 34.1949C80.2565 35.3007 80.1556 35.4826 79.7574 35.4938C79.1728 35.5502 78.6238 36.0833 78.4557 36.8062C78.32 37.3901 79.0223 38.781 79.5231 38.8958C79.69 38.9341 79.7152 40.6531 79.5909 43.5824C79.4949 46.1376 79.3705 49.0669 79.3325 50.1125C79.2568 52.0134 79.2568 52.0134 78.582 52.2687C76.7183 52.9105 75.7615 54.1262 75.7654 55.811C75.7495 57.7695 77.3335 59.465 79.1983 59.5117C79.6244 59.5069 80.1233 59.5041 80.3245 59.5209C80.6328 59.5184 80.7674 59.6956 81.1215 60.5675C81.3562 61.1338 81.8575 62.3176 82.2394 63.1959L82.9243 64.7878L82.3967 65.3551C82.1179 65.6719 81.8022 66.2732 81.7052 66.6902C81.5565 67.3297 81.6161 67.5777 82.1287 68.398C82.684 69.2867 82.8102 69.3742 83.6964 69.5334L84.666 69.7117L85.1688 71.3937C86.9453 77.3651 86.8964 77.1343 86.4397 77.586C85.9144 78.0806 85.7938 78.5362 85.934 79.2566C86.0211 79.7012 85.8923 79.8767 84.381 81.0824C83.4957 81.802 82.3852 82.7336 81.9242 83.1404C80.4492 84.4424 79.7378 84.7918 78.993 84.5918C77.9978 84.3344 77.0247 84.99 76.8176 86.07L76.6514 86.9105L73.8784 88.5007C72.3548 89.3815 70.6898 90.3031 70.1605 90.5625C69.2327 91.0234 69.2327 91.0234 68.6749 90.3977C67.9545 89.5883 66.3236 89.2292 65.0619 89.6136C64.2758 89.8434 64.0358 89.9934 63.4309 90.704C62.6051 91.6716 62.7785 91.682 59.7783 90.6576C57.5377 89.8952 57.4992 89.8717 57.1322 89.0554C56.9231 88.5682 56.5898 88.1111 56.3695 87.9874C56.0336 87.7933 55.9783 87.5903 56.123 86.7156C56.2507 85.8516 56.3752 85.6312 56.8294 85.4425C57.2043 85.2795 57.421 84.9777 57.6125 84.4066C57.8469 83.7135 57.8087 83.4998 57.3495 82.7649C57.0611 82.3034 56.8776 81.8953 56.9634 81.8417C57.0213 81.7818 57.2664 81.1058 57.4924 80.323C57.7077 79.5231 57.9528 78.8471 58.0043 78.815C58.0728 78.7721 58.4734 78.6882 58.9188 78.5999C61.5209 78.1859 61.4477 74.2156 58.8471 73.6781C57.321 73.3723 55.7347 74.6487 55.7666 76.1496C55.7933 76.9171 56.3719 77.9576 56.9495 78.3096C57.2747 78.4867 57.2721 78.7497 56.8909 80.1998L56.4409 81.8831L55.4274 82.3976C54.4824 82.8692 54.4074 82.9399 54.3421 83.5985C54.2617 84.3854 54.663 85.1802 55.292 85.5001C55.6343 85.6664 55.6962 85.8417 55.5921 86.6671C55.4816 87.5204 55.3872 87.6744 54.7658 88.0152C53.2958 88.7912 53.5304 90.8071 55.1335 91.1599C55.7735 91.3065 56.0048 91.257 56.5385 90.8522C57.1645 90.3661 57.1923 90.3724 59.7496 91.2221C62.2512 92.059 62.9252 92.3746 62.5823 92.5888C62.3422 92.7388 62.6631 94.3206 63.069 94.97C63.9019 96.3031 65.0551 96.8895 66.6119 96.7485C68.7811 96.5574 70.397 94.1456 69.715 92.1004L69.5466 91.5639L70.8345 90.878C71.5245 90.4944 73.2173 89.5792 74.5695 88.8055L76.9996 87.4296L77.5836 87.7538C79.0063 88.5045 80.5603 87.3671 80.2158 85.8239C80.0967 85.328 80.1804 85.1568 80.6327 84.8505C80.9413 84.6576 82.3604 83.5332 83.7818 82.3362L86.3757 80.1925L87.2875 80.4307C88.0879 80.6434 88.2849 80.6154 88.7009 80.2129C89.3184 79.6369 89.5256 78.5569 89.1198 77.9074C88.9489 77.634 88.4827 77.3075 88.0718 77.184C87.3506 76.9455 87.3014 76.905 87.0929 76.0372C86.9845 75.5584 86.5989 74.2547 86.2687 73.154C85.2163 69.6767 85.2017 69.4245 85.8532 69.0173C86.5905 68.5567 86.9804 67.006 86.6114 66.0722C86.2745 65.1896 85.252 64.5453 84.1921 64.5659C83.5477 64.5646 83.3487 64.4751 83.2357 64.1417C83.159 63.9045 82.7046 62.8339 82.2395 61.7462C81.1151 59.1457 81.13 59.2077 81.8161 58.5888C83.7929 56.8308 83.318 53.7056 80.894 52.535L79.8499 52.0468L80.0483 46.9087C80.1361 44.0734 80.2262 41.1655 80.2594 40.4556C80.3041 39.192 80.3407 39.0978 81.0158 38.6522C82.0917 37.9324 82.2011 36.3907 81.2042 35.8254C80.6972 35.5481 81.1549 33.0759 81.7182 32.9853C83.8404 32.681 84.8669 30.6613 83.7777 28.9181C83.4573 28.4053 83.4789 28.2492 83.8845 27.6393C84.4425 26.8154 84.6718 26.6483 84.9177 26.8511C85.0161 26.9323 85.468 26.8162 85.9116 26.6103C86.9186 26.1236 87.1657 25.5653 86.8611 24.5437C86.6076 23.6802 86.1891 24.3457 91.4064 17.6636C92.9467 15.7031 94.3239 13.9395 94.4827 13.6976C94.8046 13.2589 95.1494 13.1622 95.331 13.4528C95.5125 13.7433 96.8076 13.9083 97.5808 13.7341C98.2298 13.59 98.3239 13.6262 98.5201 14.169C98.6395 14.4746 99.0599 15.3763 99.4677 16.1434C100.166 17.4894 100.181 17.5514 99.8094 18.1399C99.0732 19.289 99.5532 20.4387 100.906 20.7341L101.807 20.9552L102.896 23.079L103.995 25.2199L103.461 26.0053C102.182 27.8501 103.536 30.2836 105.715 30.1096C108.227 29.8946 108.806 26.3959 106.522 25.2572C106.141 25.0674 105.533 24.972 105.177 25.0516C104.601 25.1977 104.513 25.1337 104.311 24.6187C104.191 24.3131 103.675 23.2576 103.167 22.2919C102.434 20.9672 102.264 20.5035 102.452 20.3856C102.589 20.2999 102.763 19.9298 102.837 19.5513C103.08 18.5674 102.48 17.683 101.433 17.4578L100.631 17.3178L99.7258 15.4118L98.8209 13.5058L99.5179 12.7138C101.453 10.5068 100.541 7.36934 97.7886 6.66531C96.6821 6.38242 95.2835 6.66224 94.591 7.30887C94.2672 7.63002 94.0938 7.61956 93.5761 7.32519C92.4808 6.67882 92.1475 6.22171 92.2322 5.47968C92.2777 5.09476 92.1971 4.62235 92.0582 4.40017C91.6845 3.80201 90.5822 3.56401 89.7873 3.89434C89.1853 4.15172 89.0737 4.3165 88.8884 5.05011Z" fill="black" stroke="black" stroke-width="6"/>
<path d="M60.2324 4.46387L40.5814 38.4596L40.5947 38.4787L60.2324 4.46387ZM79.8701 38.4731C79.0151 36.9923 60.2324 55.5617 60.2324 55.5617L119.523 107.162L79.8701 38.4731Z" fill="#323232"/>
<path d="M0.926849 107.295L60.2209 4.59772L79.872 38.5953L0.926849 107.295Z" fill="black"/>
</svg>
