<svg width="120" height="114" viewBox="0 0 120 114" fill="none" xmlns="http://www.w3.org/2000/svg">
<path d="M93.0749 3.96791C92.96 5.25789 93.5763 5.99245 94.8551 6.05473C95.3758 6.08359 95.9735 5.96055 96.1791 5.78799C96.5561 5.47163 96.8051 5.52472 98.1967 6.27831C98.7894 6.56699 98.8125 6.66408 98.6626 7.63402C98.4589 8.85296 98.8073 10.1035 99.6387 11.0943L100.255 11.8288L98.6953 14.5641C97.8313 16.075 96.6479 18.1451 96.0348 19.1545C95.453 20.1666 94.4978 21.8124 93.9332 22.8101L92.8838 24.6222L92.1372 24.6374C90.5954 24.6793 89.7545 26.2874 90.555 27.6243C90.928 28.2428 90.9227 28.4802 90.5379 29.2397C90.0961 30.1053 90.0618 30.1341 89.5324 30.0252C88.7369 29.8776 88.0193 30.1013 87.2139 30.7772C86.6141 31.2805 86.4944 31.5555 86.4019 32.5938C86.2951 33.615 86.3786 33.9234 86.866 34.5042C87.1956 34.8971 87.697 35.3206 88.0005 35.4735C88.5187 35.7082 88.5533 35.8538 88.4184 37.1896C88.2748 38.4455 88.1923 38.6603 87.7576 38.7339C87.1257 38.8857 86.6063 39.5544 86.5334 40.3725C86.4745 41.0332 87.4583 42.4492 88.0248 42.4979C88.2136 42.5141 88.506 44.3939 88.8208 47.623C89.1092 50.4377 89.424 53.6668 89.5434 54.8183C89.7532 56.9129 89.7532 56.913 89.053 57.2967C87.1096 58.2869 86.2484 59.7665 86.5121 61.6121C86.7964 63.7606 88.7932 65.3746 90.8438 65.1386C91.31 65.0677 91.8562 64.9878 92.0793 64.9752C92.4167 64.9249 92.5916 65.0985 93.1138 65.9993C93.4582 66.5837 94.1899 67.8037 94.7436 68.7073L95.7392 70.3463L95.2485 71.0492C94.9918 71.4393 94.7385 72.1467 94.6964 72.6186C94.6319 73.3423 94.7354 73.6048 95.4234 74.4248C96.1688 75.3131 96.3206 75.3895 97.3161 75.4275L98.4061 75.4735L99.216 77.2392C102.082 83.5091 101.993 83.2636 101.562 83.829C101.063 84.4519 101.001 84.9697 101.265 85.7374C101.429 86.2112 101.315 86.4233 99.8449 87.9773C98.9856 88.9022 97.9122 90.094 97.4697 90.6108C96.0539 92.2646 95.3282 92.7571 94.4813 92.6527C93.3511 92.5239 92.3858 93.3921 92.3251 94.6075L92.2725 95.5541L89.4787 97.7236C87.9448 98.9234 86.2622 100.19 85.7222 100.555C84.7765 101.203 84.7765 101.203 84.0689 100.604C83.1549 99.8277 81.3124 99.6853 79.9891 100.301C79.1631 100.674 78.9231 100.875 78.3698 101.747C77.6139 102.934 77.8055 102.919 74.3601 102.259C71.7876 101.768 71.7418 101.748 71.2139 100.91C70.9097 100.409 70.4741 99.9592 70.2136 99.8576C69.8157 99.6966 69.7238 99.4826 69.7477 98.5019C69.7545 97.5355 69.857 97.2748 70.3257 96.998C70.7114 96.7617 70.9024 96.3977 71.0242 95.7423C71.1744 94.9468 71.0996 94.7185 70.4832 93.9839C70.0962 93.5226 69.8322 93.1037 69.9179 93.0318C69.9722 92.9572 70.1366 92.1787 70.2637 91.2861C70.3765 90.3764 70.541 89.5979 70.5924 89.5548C70.661 89.4972 71.0869 89.3436 71.5615 89.1783C74.349 88.3239 73.6574 83.9845 70.7249 83.7961C69.0055 83.696 67.4638 85.339 67.73 86.9787C67.8774 87.8157 68.6717 88.8667 69.3588 89.1635C69.7424 89.3074 69.7801 89.596 69.5857 91.2437L69.3518 93.1575L68.3204 93.8774C67.3576 94.5397 67.2862 94.6287 67.3162 95.3605C67.3492 96.2352 67.9114 97.0443 68.6499 97.298C69.0506 97.4275 69.1454 97.61 69.1585 98.5305C69.1688 99.4825 69.089 99.6659 68.4606 100.135C66.9693 101.212 67.5368 103.385 69.3478 103.524C70.0717 103.586 70.3175 103.497 70.84 102.971C71.4511 102.342 71.4825 102.344 74.4156 102.882C77.2858 103.413 78.0729 103.655 77.7302 103.943C77.4902 104.144 78.0855 105.828 78.6302 106.477C79.7482 107.81 81.1021 108.275 82.7863 107.88C85.1339 107.337 86.5332 104.445 85.4708 102.309L85.2038 101.747L86.5093 100.797C87.2064 100.271 88.9204 99.0072 90.283 97.9512L92.734 96.0692L93.4238 96.3346C95.0984 96.9381 96.6261 95.4524 96.011 93.8144C95.804 93.2894 95.8695 93.0889 96.3178 92.6836C96.6263 92.4247 98.0082 90.9741 99.3813 89.4434L101.894 86.6949L102.929 86.8156C103.839 86.9254 104.051 86.8643 104.445 86.3592C105.033 85.633 105.093 84.4176 104.549 83.7684C104.319 83.4951 103.758 83.2091 103.289 83.1371C102.462 82.9868 102.402 82.95 102.04 82.0312C101.847 81.5232 101.224 80.154 100.692 78.9988C99.0037 75.3505 98.9489 75.0763 99.6001 74.5298C100.337 73.9115 100.525 72.1523 99.9773 71.1858C99.4722 70.2706 98.2526 69.722 97.0944 69.9078C96.388 70.0057 96.1561 69.9382 95.981 69.5903C95.8604 69.3422 95.1976 68.239 94.5204 67.1188C92.8879 64.4423 92.9137 64.5079 93.5702 63.7242C95.4656 61.4933 94.464 58.1418 91.6275 57.2324L90.4082 56.8582L89.8343 51.1974C89.4939 48.0771 89.1448 44.8767 89.0718 44.0937C88.9263 42.7021 88.9518 42.5934 89.623 42.0011C90.6911 41.0466 90.5736 39.3404 89.3941 38.8745C88.7959 38.6487 88.9166 35.8692 89.5199 35.6832C91.7986 35.0229 92.6124 32.6516 91.1503 30.9092C90.7203 30.3967 90.7199 30.2223 91.0705 29.4915C91.555 28.5028 91.7806 28.2844 92.0813 28.4687C92.2015 28.5424 92.6789 28.3457 93.1332 28.0518C94.1618 27.3634 94.3465 26.7135 93.8554 25.6409C93.4447 24.7338 93.0885 25.5275 97.7765 17.4019C99.1624 15.0163 100.4 12.8717 100.537 12.5822C100.822 12.0519 101.185 11.8929 101.429 12.1833C101.672 12.4737 103.117 12.4551 103.937 12.1451C104.626 11.8872 104.735 11.9124 105.033 12.477C105.211 12.7935 105.811 13.7168 106.376 14.4945C107.348 15.862 107.374 15.9276 107.058 16.6297C106.428 18.0023 107.131 19.1881 108.659 19.3035L109.68 19.407L111.2 21.5666L112.735 23.7433L112.27 24.6862C111.153 26.9046 113.011 29.3627 115.373 28.8364C118.092 28.2139 118.188 24.2909 115.509 23.395C115.062 23.2457 114.382 23.2348 114.004 23.3768C113.395 23.6256 113.289 23.569 112.988 23.0359C112.81 22.7194 112.082 21.6423 111.376 20.6623C110.37 19.3236 110.111 18.8417 110.3 18.6835C110.437 18.5685 110.571 18.1361 110.593 17.71C110.708 16.5944 109.914 15.7178 108.732 15.6322L107.831 15.6023L106.546 13.6531L105.261 11.704L105.903 10.7287C107.683 8.01242 106.201 4.71477 103.076 4.36718C101.82 4.2276 100.331 4.7496 99.6715 5.56483C99.3662 5.9666 99.1745 5.98184 98.5619 5.73901C97.2622 5.19939 96.8266 4.74983 96.805 3.92368C96.7957 3.49488 96.6346 2.98964 96.4482 2.76756C95.9465 2.16966 94.702 2.07863 93.8819 2.563C93.2618 2.93775 93.1649 3.1355 93.0749 3.96791Z" fill="black" stroke="black" stroke-width="4"/>
<path d="M57.6177 15.2885L38.8331 47.7854L38.8459 47.8037L57.6177 15.2885ZM76.3896 47.7983C75.5723 46.3828 57.6177 64.1335 57.6177 64.1335L114.294 113.458L76.3896 47.7983Z" fill="#323232"/>
<path d="M0.926849 113.586L57.6067 15.4164L76.3915 47.9151L0.926849 113.586Z" fill="black"/>
</svg>
